<!--
  Glyph-only variant: no badge background, for hosts that provide
  their own container styling (e.g. the nav's gradient ring).
-->
<svg xmlns="http://www.w3.org/2000/svg" viewBox="0 0 64 64" role="img" aria-label="MemeLab">
  <title>MemeLab</title>
  <defs>
    <linearGradient id="ml-stroke" x1="0%" y1="100%" x2="100%" y2="0%">
      <stop offset="0%" stop-color="#5EF7D1"/>
      <stop offset="50%" stop-color="#8B5CF6"/>
      <stop offset="100%" stop-color="#F0ABFC"/>
    </linearGradient>
    <linearGradient id="ml-liquid" x1="0%" y1="0%" x2="0%" y2="100%">
      <stop offset="0%" stop-color="#8B5CF6" stop-opacity="0.55"/>
      <stop offset="100%" stop-color="#F0ABFC" stop-opacity="0.85"/>
    </linearGradient>
  </defs>

  <path d="M 20 39.5 Q 32 41.5 44 39.5 L 48 52 L 16 52 Z" fill="url(#ml-liquid)"/>
  <circle cx="25" cy="45" r="1.5" fill="#5EF7D1" opacity="0.9"/>
  <circle cx="38" cy="48" r="1.1" fill="#F0ABFC" opacity="0.85"/>

  <path d="M 23 13 L 41 13 L 41 15 L 38 15 L 38 25 L 49 52 Q 49.5 54.5 47 54.5 L 17 54.5 Q 14.5 54.5 15 52 L 26 25 L 26 15 L 23 15 Z"
        fill="none" stroke="url(#ml-stroke)" stroke-width="2.4"
        stroke-linecap="round" stroke-linejoin="round"/>

  <path d="M 32 2 L 33.3 6.5 L 37.5 7.2 L 33.3 7.9 L 32 12 L 30.7 7.9 L 26.5 7.2 L 30.7 6.5 Z"
        fill="url(#ml-stroke)"/>
  <path d="M 44 19 L 44.6 20.8 L 46.4 21.4 L 44.6 22 L 44 23.8 L 43.4 22 L 41.6 21.4 L 43.4 20.8 Z"
        fill="#F0ABFC" opacity="0.85"/>
</svg>
